<?xml version="1.0" encoding="UTF-8" standalone="no"?>
<!-- Created with Inkscape (http://www.inkscape.org/) -->
<svg xmlns:inkscape="http://www.inkscape.org/namespaces/inkscape" xmlns:rdf="http://www.w3.org/1999/02/22-rdf-syntax-ns#" xmlns="http://www.w3.org/2000/svg" xmlns:xlink="http://www.w3.org/1999/xlink" xmlns:ns1="http://sozi.baierouge.fr" xmlns:cc="http://creativecommons.org/ns#" xmlns:sodipodi="http://sodipodi.sourceforge.net/DTD/sodipodi-0.dtd" xmlns:dc="http://purl.org/dc/elements/1.1/" id="svg2" xml:space="preserve" viewBox="0 0 16.566 32" version="1.1" inkscape:version="0.91 r13725">
  <defs id="defs6">
    <linearGradient id="linearGradient24" y2="36.076" gradientUnits="userSpaceOnUse" x2="20.225" gradientTransform="matrix(.64 0 0 -.64 .0022402 25.6)" y1="36.076" x1=".5">
      <stop id="stop26" style="stop-color:#ffcc69" offset="0"/>
      <stop id="stop28" style="stop-color:#804300" offset="1"/>
    </linearGradient>
    <linearGradient id="linearGradient44" y2="20.625" gradientUnits="userSpaceOnUse" x2="20.672" gradientTransform="matrix(.64 0 0 -.64 .0022402 25.6)" y1="20.625" x1="-.0029">
      <stop id="stop46" style="stop-color:#175eb0" offset="0"/>
      <stop id="stop48" style="stop-color:#043063" offset="1"/>
    </linearGradient>
    <linearGradient id="linearGradient62" y2="13.081" gradientUnits="userSpaceOnUse" x2="20.675" gradientTransform="matrix(.64 0 0 -.64 .0022402 25.6)" y1="13.081" x1="0.0249">
      <stop id="stop64" style="stop-color:#639de0" offset="0"/>
      <stop id="stop66" style="stop-color:#053c7a" offset="1"/>
    </linearGradient>
    <linearGradient id="linearGradient80" y2="24.551" gradientUnits="userSpaceOnUse" x2="20.675" gradientTransform="matrix(.64 0 0 -.64 .0022402 25.6)" y1="24.551" x1="0.0249">
      <stop id="stop82" style="stop-color:#d0e4ff" offset="0"/>
      <stop id="stop84" style="stop-color:#8dabcf" offset="1"/>
    </linearGradient>
    <linearGradient id="linearGradient98" y2="27.973" gradientUnits="userSpaceOnUse" x2="20.675" gradientTransform="matrix(.64 0 0 -.64 .0022402 25.6)" y1="27.973" x1="4.3252">
      <stop id="stop100" style="stop-color:#175eb0" offset="0"/>
      <stop id="stop102" style="stop-color:#043063" offset="1"/>
    </linearGradient>
    <linearGradient id="linearGradient116" y2="14.987" gradientUnits="userSpaceOnUse" x2="11.925" gradientTransform="matrix(.64 0 0 -.64 .0022402 25.6)" y1="14.987" x1="6.7749">
      <stop id="stop118" style="stop-color:#dae4f2" offset="0"/>
      <stop id="stop120" style="stop-color:#95bff0" offset="1"/>
    </linearGradient>
    <linearGradient id="linearGradient134" y2="21.27" gradientUnits="userSpaceOnUse" x2="3.5373" gradientTransform="matrix(.64 0 0 -.64 .0022402 25.6)" y1="21.27" x1="1.3623">
      <stop id="stop136" style="stop-color:#edeff2" offset="0"/>
      <stop id="stop138" style="stop-color:#c2d7f0" offset="1"/>
    </linearGradient>
    <linearGradient id="linearGradient152" y2="17.775" gradientUnits="userSpaceOnUse" x2="17.263" gradientTransform="matrix(.64 0 0 -.64 .0022402 25.6)" y1="17.775" x1="15.138">
      <stop id="stop154" style="stop-color:#a7c9f2" offset="0"/>
      <stop id="stop156" style="stop-color:#95bff0" offset="1"/>
    </linearGradient>
    <clipPath id="clipPath164">
      <path id="path166" d="m0 0.6h7v24h-7v-24z" inkscape:connector-curvature="0"/>
    </clipPath>
    <mask id="mask168">
      <g id="g170">
        <g id="g172" clip-path="url(#clipPath164)">
          <path id="path174" style="fill:#000000;fill-opacity:.26170" d="m0 0.6h7v24h-7v-24z" inkscape:connector-curvature="0"/>
        </g>
      </g>
    </mask>
    <clipPath id="clipPath180">
      <path id="path182" d="m0 0.6h7v24h-7v-24z" inkscape:connector-curvature="0"/>
    </clipPath>
    <clipPath id="clipPath184">
      <path id="path186" d="m0 1h7v24h-7v-24z" inkscape:connector-curvature="0"/>
    </clipPath>
    <linearGradient id="linearGradient192" y2="-18.225" gradientUnits="userSpaceOnUse" x2="8.3877" gradientTransform="matrix(.64 0 0 .64 .92186 24.48)" y1="-18.225" x1=".0127">
      <stop id="stop194" style="stop-color:#ffffff" offset="0"/>
      <stop id="stop196" style="stop-color:#000000" offset="1"/>
    </linearGradient>
    <clipPath id="clipPath224">
      <path id="path226" d="m1 21.6h12v4h-12v-4z" inkscape:connector-curvature="0"/>
    </clipPath>
    <mask id="mask228">
      <g id="g230">
        <g id="g232" clip-path="url(#clipPath224)">
          <path id="path234" style="fill:#000000;fill-opacity:.67190" d="m1 21.6h12v4h-12v-4z" inkscape:connector-curvature="0"/>
        </g>
      </g>
    </mask>
    <clipPath id="clipPath240">
      <path id="path242" d="m1 21.6h12v4h-12v-4z" inkscape:connector-curvature="0"/>
    </clipPath>
    <clipPath id="clipPath244">
      <path id="path246" d="m1 22h12v4h-12v-4z" inkscape:connector-curvature="0"/>
    </clipPath>
    <linearGradient id="linearGradient274" y2="2.25" gradientUnits="userSpaceOnUse" x2="19.25" gradientTransform="matrix(.64 0 0 -.64 .0022402 25.6)" y1="2.25" x1="1.1499">
      <stop id="stop276" style="stop-color:#ffcc69" offset="0"/>
      <stop id="stop278" style="stop-color:#804300" offset="1"/>
    </linearGradient>
    <linearGradient id="linearGradient292" y2="2.5024" gradientUnits="userSpaceOnUse" x2="18.839" gradientTransform="matrix(.63808 .04976 .04976 -.63808 .0022402 25.6)" y1="2.5024" x1="2.4395">
      <stop id="stop294" style="stop-color:#a17b30" offset="0"/>
      <stop id="stop296" style="stop-color:#804300" offset="1"/>
    </linearGradient>
    <linearGradient id="linearGradient310" y2="2.7305" gradientUnits="userSpaceOnUse" x2="18.204" gradientTransform="matrix(.63808 .04992 .04992 -.63808 .0017602 25.6)" y1="2.7305" x1="3.1333">
      <stop id="stop312" style="stop-color:#ffcc69" offset="0"/>
      <stop id="stop314" style="stop-color:#804300" offset="1"/>
    </linearGradient>
    <linearGradient id="linearGradient328" y2="24.586" gradientUnits="userSpaceOnUse" x2="16.475" gradientTransform="matrix(.63936 -.02768 .02512 -.64168 .0019202 25.6)" y1="24.586" x1="2.6123">
      <stop id="stop330" style="stop-color:#114785" offset="0"/>
      <stop id="stop332" style="stop-color:#03264f" offset="1"/>
    </linearGradient>
    <linearGradient id="linearGradient346" y2="29.237" gradientUnits="userSpaceOnUse" x2="8.3667" gradientTransform="matrix(.60376 .21216 .21216 -.60376 .0020802 25.6)" y1="29.237" x1="-6.3398">
      <stop id="stop348" style="stop-color:#114785" offset="0"/>
      <stop id="stop350" style="stop-color:#03264f" offset="1"/>
    </linearGradient>
    <linearGradient id="linearGradient364" y2="23.739" gradientUnits="userSpaceOnUse" x2="18.438" gradientTransform="matrix(.64 0 0 -.64 .0022402 25.6)" y1="23.739" x1="12.263">
      <stop id="stop366" style="stop-color:#114785" offset="0"/>
      <stop id="stop368" style="stop-color:#03264f" offset="1"/>
    </linearGradient>
    <linearGradient id="linearGradient382" y2="3.9902" gradientUnits="userSpaceOnUse" x2="15.199" gradientTransform="matrix(.638 .05008 .05008 -.638 .0018402 25.6)" y1="3.9902" x1="2.7358">
      <stop id="stop384" style="stop-color:#ffdfa1" offset="0"/>
      <stop id="stop386" style="stop-color:#d49148" offset="1"/>
    </linearGradient>
    <clipPath id="clipPath394">
      <path id="path396" d="m10 0.6h3v22h-3v-22z" inkscape:connector-curvature="0"/>
    </clipPath>
    <mask id="mask398">
      <g id="g400">
        <g id="g402" clip-path="url(#clipPath394)">
          <path id="path404" style="fill:#000000;fill-opacity:.23050" d="m10 0.6h3v22h-3v-22z" inkscape:connector-curvature="0"/>
        </g>
      </g>
    </mask>
    <clipPath id="clipPath410">
      <path id="path412" d="m10 0.6h3v22h-3v-22z" inkscape:connector-curvature="0"/>
    </clipPath>
    <clipPath id="clipPath414">
      <path id="path416" d="m10 1h3v22h-3v-22z" inkscape:connector-curvature="0"/>
    </clipPath>
    <linearGradient id="linearGradient422" y2="-16345" gradientUnits="userSpaceOnUse" x2="35.536" gradientTransform="matrix(.000026976 -.64 .64 -.00064 10473 18.81)" y1="-16345" x1="11.812">
      <stop id="stop424" style="stop-color:#ffffff" offset="0"/>
      <stop id="stop426" style="stop-color:#000000" offset="1"/>
    </linearGradient>
    <linearGradient id="linearGradient460" y2="21.625" gradientUnits="userSpaceOnUse" x2="4.1123" gradientTransform="matrix(.64 0 0 -.64 .0022402 25.6)" y1="21.625" x1="2.9873">
      <stop id="stop462" style="stop-color:#a7c9f2" offset="0"/>
      <stop id="stop464" style="stop-color:#95bff0" offset="1"/>
    </linearGradient>
    <linearGradient id="linearGradient478" y2="16.5" gradientUnits="userSpaceOnUse" x2="17.525" gradientTransform="matrix(.64 0 0 -.64 .0022402 25.6)" y1="16.5" x1="10.575">
      <stop id="stop480" style="stop-color:#638bbf" offset="0"/>
      <stop id="stop482" style="stop-color:#5681b3" offset="1"/>
    </linearGradient>
    <linearGradient id="linearGradient496" y2="17.798" gradientUnits="userSpaceOnUse" x2="18.275" gradientTransform="matrix(.64 0 0 -.64 .0022402 25.6)" y1="17.798" x1="17.025">
      <stop id="stop498" style="stop-color:#638bbf" offset="0"/>
      <stop id="stop500" style="stop-color:#5681b3" offset="1"/>
    </linearGradient>
    <linearGradient id="linearGradient514" y2="13.475" gradientUnits="userSpaceOnUse" x2="20.712" gradientTransform="matrix(.64 0 0 -.64 .0022402 25.6)" y1="13.475" x1="20.188">
      <stop id="stop516" style="stop-color:#638bbf" offset="0"/>
      <stop id="stop518" style="stop-color:#5681b3" offset="1"/>
    </linearGradient>
    <linearGradient id="linearGradient532" y2="-2.333" gradientUnits="userSpaceOnUse" x2="-4.1876" gradientTransform="matrix(-.64 0 0 .64 .0017602 25.6)" y1="-2.333" x1="-9.9126">
      <stop id="stop534" style="stop-color:#ffcc69" offset="0"/>
      <stop id="stop536" style="stop-color:#804300" offset="1"/>
    </linearGradient>
    <clipPath id="clipPath546">
      <path id="path548" d="m6 23.6h6v2h-6v-2z" inkscape:connector-curvature="0"/>
    </clipPath>
    <mask id="mask550">
      <g id="g552">
        <g id="g554" clip-path="url(#clipPath546)">
          <path id="path556" style="fill:#000000;fill-opacity:.46090" d="m6 23.6h6v2h-6v-2z" inkscape:connector-curvature="0"/>
        </g>
      </g>
    </mask>
    <clipPath id="clipPath562">
      <path id="path564" d="m6 23.6h6v2h-6v-2z" inkscape:connector-curvature="0"/>
    </clipPath>
    <clipPath id="clipPath566">
      <path id="path568" d="m6 24h6v2h-6v-2z" inkscape:connector-curvature="0"/>
    </clipPath>
    <linearGradient id="linearGradient596" y2="2.2773" gradientUnits="userSpaceOnUse" x2="17.535" gradientTransform="matrix(.638 .0504 .0504 -.638 .0021602 25.6)" y1="2.2773" x1="9.2842">
      <stop id="stop598" style="stop-color:#8f8f8f" offset="0"/>
      <stop id="stop600" style="stop-color:#4d4d4d" offset="1"/>
    </linearGradient>
    <linearGradient id="linearGradient614" y2="2.0957" gradientUnits="userSpaceOnUse" x2="17.504" gradientTransform="matrix(.63808 .04912 .04912 -.63808 .0019202 25.6)" y1="2.0957" x1="9.355">
      <stop id="stop616" style="stop-color:#ffffff" offset="0"/>
      <stop id="stop618" style="stop-color:#949494" offset="1"/>
    </linearGradient>
  </defs>
  <g id="g10" transform="matrix(1.25,0,0,-1.25,0,32)">
    <g id="g12">
      <g id="g14">
        <g id="g16">
          <g id="g22">
            <path id="path30" style="fill-rule:evenodd;fill:url(#linearGradient24)" d="m12.961 2.53c0-0.707-0.617-1.301-1.856-1.793-1.238-0.492-2.73-0.739-4.48-0.739-1.746 0-3.23 0.247-4.445 0.739-1.239 0.492-1.86 1.086-1.86 1.793 0 0.679 0.621 1.269 1.86 1.758 1.215 0.492 2.699 0.738 4.445 0.738 1.75 0 3.242-0.246 4.48-0.738 1.239-0.489 1.856-1.079 1.856-1.758z" inkscape:connector-curvature="0"/>
          </g>
        </g>
      </g>
      <path id="path32" style="fill-rule:evenodd;fill:#453100" d="m5.473 0.479c-1.727 0.129-3.102 0.504-4.125 1.121l-1.028 0.93 0.129 2.398c1.985-0.086 3.989-0.215 6.016-0.383 4.055-0.343 6.176-0.746 6.367-1.218 0.172-0.489 0.215-0.852 0.129-1.086-0.043-0.106-0.106-0.172-0.191-0.192-0.278-0.32-0.79-0.629-1.536-0.929-1.492-0.575-3.414-0.79-5.761-0.641z" inkscape:connector-curvature="0"/>
      <g id="g34">
        <g id="g36">
          <g id="g42">
            <path id="path50" style="fill-rule:evenodd;fill:url(#linearGradient44)" d="m12.227 23.678c0.148-0.277 0.351-0.512 0.605-0.703 0.301-0.234 0.441-0.598 0.418-1.086v-18.656c0-0.684-0.648-1.281-1.953-1.793-1.301-0.488-2.856-0.735-4.672-0.735-1.813 0-3.367 0.247-4.672 0.735-1.301 0.512-1.953 1.109-1.953 1.793l0.035 0.031h-0.035v18.625c-0.02 0.488 0.129 0.852 0.449 1.086 0.383 0.301 0.641 0.652 0.77 1.059 3.113 0 4.789 0.019 5.023 0.062l0.383-0.031 0.418 0.031 5.023-0.062 0.161-0.356z" inkscape:connector-curvature="0"/>
          </g>
        </g>
      </g>
      <g id="g52">
        <g id="g54">
          <g id="g60">
            <path id="path68" style="fill-rule:evenodd;fill:url(#linearGradient62)" d="m13.25 18.913v-8.512l-0.352-0.031c-1.257-0.067-2.496 0.277-3.71 1.023l-1.442 1.148c-3.199 0.684-5.527 1.368-6.976 2.051l-0.77 0.352v1.41c1.238-0.856 2.723-1.559 4.449-2.113 2.391-0.77 3.938-1.153 4.641-1.153 0.148-0.019 0.234-0.011 0.258 0.032 0.062 0.066-0.239 0.226-0.899 0.48-1.109 0.449-2.367 1.016-3.773 1.695-1.879 0.899-3.246 1.664-4.098 2.305l-0.578 0.414v2.02c3.48-3.137 6.07-5.11 7.777-5.922l3.008-1.442c-2.773 2.348-4.64 4.043-5.597 5.09-0.665 0.727-1.411 1.641-2.243 2.75-0.746 1.004-1.172 1.633-1.281 1.891-0.191 0.574-0.383 1.035-0.574 1.375l0.129 0.258 0.894 0.031 0.641-1.442c0.148-0.382 0.789-1.363 1.922-2.945 1.344-1.898 2.515-3.316 3.519-4.254l1.95-1.824-0.254 0.512c-0.129 0.343-0.586 1.269-1.375 2.785-0.832 1.621-1.387 2.75-1.664 3.391-0.301 0.66-0.567 1.324-0.801 1.984-0.192 0.574-0.332 0.949-0.418 1.121-0.149 0.254-0.012 0.488 0.418 0.703h1.215c0.086-0.152 0.214-0.672 0.382-1.57 0.215-1 0.407-1.738 0.579-2.207 0.171-0.469 0.617-1.813 1.343-4.031 0.703-2.071 1.207-3.286 1.504-3.649 0.215-0.258 0.309-0.363 0.289-0.32-0.215 0.426-0.363 0.906-0.449 1.441-0.234 1.238-0.535 3.488-0.894 6.75-0.129 1.09-0.332 2.082-0.61 2.977-0.062 0.258-0.012 0.449 0.16 0.578h0.797v-0.035c0.215-1.129 0.321-1.703 0.321-1.727 0.066-0.148 0.14-1.207 0.226-3.168 0.082-2.219 0.211-3.894 0.383-5.023 0.086-0.598 0.215-1.59 0.383-2.977l0.226 10.145c0.02 0.812-0.011 1.418-0.097 1.824-0.168 0.535-0.235 0.851-0.192 0.961l0.449-0.031 0.161-0.356c0.148-0.277 0.351-0.512 0.605-0.703v-0.031c-0.039-1.258-0.168-2.719-0.383-4.383-0.062-0.703-0.148-1.77-0.254-3.199-0.086-1.324-0.129-2.114-0.129-2.371 0-0.321 0.141-0.278 0.418 0.129 0.254 0.406 0.352 0.929 0.286 1.57-0.043 0.316-0.106 0.746-0.192 1.277-0.043 0.235-0.043 0.469 0 0.703 0.063 0.321 0.289 1.071 0.672 2.243z" inkscape:connector-curvature="0"/>
          </g>
        </g>
      </g>
      <g id="g70">
        <g id="g72">
          <g id="g78">
            <path id="path86" style="fill-rule:evenodd;fill:url(#linearGradient80)" d="m6.785 19.073 0.512-0.832c0.363-0.641 0.609-1.164 0.738-1.571 0.125-0.468 0.235-0.789 0.32-0.957 0.043-0.086 0.211-0.308 0.512-0.672 0.34-0.429 0.543-0.746 0.606-0.961 0.257 0.215 0.449 0.481 0.578 0.801l0.929 1.567 0.254-0.223c0.172-0.191 0.278-0.363 0.321-0.512 0.105-0.425 0.191-0.609 0.254-0.547 0.043 0.024 0.097 0.043 0.16 0.067 0.043 0.043 0.074 0.18 0.097 0.414 0 0.152 0.051 0.363 0.161 0.641 0.105 0.257 0.156 0.503 0.156 0.738 0.023 0.254 0.109 0.648 0.258 1.183l0.254 0.735 0.355-1.504v-14.207c0-0.684-0.652-1.281-1.953-1.793-1.301-0.488-2.859-0.735-4.672-0.735s-3.371 0.247-4.672 0.735c-1.301 0.512-1.953 1.109-1.953 1.793l0.035 0.031h-0.035v8.191c0.109 0.086 0.258 0.149 0.449 0.192 0.172 0.062 0.363 0.203 0.578 0.418 0.321 0.406 0.532 0.672 0.637 0.801 0.152 0.211 0.27 0.265 0.356 0.16 0.125-0.153 0.382-0.289 0.765-0.418 0.106 0.172 0.301 0.363 0.578 0.578 0.254 0.187 0.403 0.34 0.449 0.445 0.106 0.235 0.317 0.512 0.637 0.832 0.215 0.215 0.406 0.469 0.578 0.77l1.758 3.84z" inkscape:connector-curvature="0"/>
          </g>
        </g>
      </g>
      <g id="g88">
        <g id="g90">
          <g id="g96">
            <path id="path104" style="fill-rule:evenodd;fill:url(#linearGradient98)" d="m3.266 11.01c-0.235 0.254-0.383 0.594-0.45 1.024l-0.031 0.574c0.32-0.832 0.524-1.289 0.61-1.375l0.703-0.672c0.468-0.426 0.734-0.856 0.8-1.281 0.063-0.489-0.105-1.184-0.511-2.082-0.449-0.938-0.449-1.641 0-2.11 0.445-0.468 1.449-0.812 3.008-1.023 1.984-0.235 3.933 0.383 5.855 1.855v-1.761c-2.09-1.153-4.352-1.579-6.785-1.282-1.11 0.153-2.004 0.536-2.688 1.153-0.511 0.468-0.789 0.941-0.832 1.41-0.043 0.234 0.075 0.64 0.352 1.215 0.277 0.597 0.598 1.086 0.961 1.472 0.512 0.536 0.18 1.496-0.992 2.883z" inkscape:connector-curvature="0"/>
          </g>
        </g>
      </g>
      <g id="g106">
        <g id="g108">
          <g id="g114">
            <path id="path122" style="fill-rule:evenodd;fill:url(#linearGradient116)" d="m6.305 13.791c-0.125-0.043-0.352 0.02-0.672 0.192-0.297 0.172-0.606 0.152-0.926-0.063-0.121-0.086-0.223-0.179-0.305-0.273 0.211 0.285 0.364 0.523 0.465 0.719 0.321 0.343 0.531 0.64 0.641 0.898 0.148 0.531 0.328 1.035 0.543 1.504l0.734 1.598 0.32-1.856c0.02-0.277 0.094-0.605 0.223-0.992 0.152-0.426 0.246-0.777 0.289-1.055 0.043-0.32 0.02-0.375-0.062-0.16-0.153 0.406-0.258 0.641-0.321 0.703-0.109 0.11-0.203 0.067-0.289-0.125-0.172-0.406-0.265-0.621-0.289-0.64-0.168-0.258-0.285-0.407-0.351-0.45z" inkscape:connector-curvature="0"/>
          </g>
        </g>
      </g>
      <g id="g124">
        <g id="g126">
          <g id="g132">
            <path id="path140" style="fill-rule:evenodd;fill:url(#linearGradient134)" d="m1.891 12.67 0.222-0.925c0-0.172 0.055-0.297 0.16-0.383 0.02-0.067-0.031-0.074-0.16-0.032-0.215 0.083-0.418 0.168-0.609 0.254-0.234 0.106-0.414 0.161-0.543 0.161l-0.098-0.032c0.235 0.125 0.418 0.266 0.547 0.414l0.481 0.543z" inkscape:connector-curvature="0"/>
          </g>
        </g>
      </g>
      <g id="g142">
        <g id="g144">
          <g id="g150">
            <path id="path158" style="fill-rule:evenodd;fill:url(#linearGradient152)" d="m10.945 15.967 0.067-0.48c0.062-0.383 0.082-0.723 0.062-1.024v-1.215c0-0.492-0.109-0.746-0.32-0.769-0.258 0.32-0.449 0.598-0.574 0.832l-0.387 0.48-0.094 0.289c0.125 0.192 0.278 0.375 0.449 0.543 0.082 0.106 0.2 0.309 0.348 0.61l0.449 0.734z" inkscape:connector-curvature="0"/>
          </g>
        </g>
      </g>
      <g id="g160">
        <g id="g176" mask="url(#mask168)">
          <g id="g198">
            <g id="g200" clip-path="url(#clipPath180)">
              <g id="g202" transform="translate(0 -.4)">
                <g id="g206">
                  <g id="g208" clip-path="url(#clipPath184)">
                    <g id="g210">
                      <g id="g212">
                        <g id="g214">
                          <g id="g216">
                            <path id="path218" style="fill-rule:evenodd;fill:url(#linearGradient192)" d="m6.234 23.777c-0.023-0.406 0-0.929 0.063-1.57v-21.055c-2.067 0.024-3.731 0.364-4.992 1.024-0.192 0.215-0.309 0.437-0.352 0.672l-0.031 0.289v19.039c0 0.277 0.031 0.461 0.098 0.543 0.125 0.129 0.253 0.277 0.382 0.449 0.149 0.191 0.426 0.629 0.832 1.312h1.793c1.493-0.234 2.227-0.468 2.207-0.703z" inkscape:connector-curvature="0"/>
                          </g>
                        </g>
                      </g>
                    </g>
                  </g>
                </g>
              </g>
            </g>
          </g>
        </g>
      </g>
      <g id="g220">
        <g id="g236" mask="url(#mask228)">
          <g id="g248">
            <g id="g250" clip-path="url(#clipPath240)">
              <g id="g252" transform="translate(0 -.4)">
                <g id="g256">
                  <g id="g258" clip-path="url(#clipPath244)">
                    <g id="g260">
                      <path id="path262" style="fill-rule:evenodd;fill:#002754" d="m12.355 24.016c0-0.407-0.546-0.746-1.632-1.024-1.11-0.297-2.434-0.449-3.969-0.449-1.559 0-2.891 0.148-4 0.449-1.09 0.278-1.633 0.617-1.633 1.024 0 0.406 0.543 0.757 1.633 1.054 1.109 0.301 2.441 0.45 4 0.45 1.558 0 2.879-0.149 3.969-0.45 1.086-0.297 1.632-0.648 1.632-1.054z" inkscape:connector-curvature="0"/>
                    </g>
                  </g>
                </g>
              </g>
            </g>
          </g>
        </g>
      </g>
      <g id="g264">
        <g id="g266">
          <g id="g272">
            <path id="path280" style="fill-rule:evenodd;fill:url(#linearGradient274)" d="m12.32 24.159c0-0.403-0.562-0.746-1.695-1.024-1.129-0.277-2.496-0.414-4.094-0.414-1.601 0-2.965 0.137-4.097 0.414-1.133 0.278-1.696 0.621-1.696 1.024 0 0.406 0.567 0.746 1.696 1.027 1.128 0.277 2.496 0.414 4.097 0.414 1.598 0 2.965-0.137 4.094-0.414 1.133-0.281 1.695-0.621 1.695-1.027z" inkscape:connector-curvature="0"/>
          </g>
        </g>
      </g>
      <g id="g282">
        <g id="g284">
          <g id="g290">
            <path id="path298" style="fill-rule:evenodd;fill:url(#linearGradient292)" d="m11.746 24.51c0-0.254-0.5-0.476-1.504-0.672-1.004-0.168-2.219-0.254-3.648-0.254-1.43 0-2.637 0.086-3.617 0.254-1 0.196-1.504 0.418-1.504 0.672 0 0.258 0.504 0.473 1.504 0.641 0.98 0.191 2.187 0.289 3.617 0.289 1.429 0 2.644-0.098 3.648-0.289 1.004-0.168 1.504-0.383 1.504-0.641z" inkscape:connector-curvature="0"/>
          </g>
        </g>
      </g>
      <g id="g300">
        <g id="g302">
          <g id="g308">
            <path id="path316" style="fill-rule:evenodd;fill:url(#linearGradient310)" d="m11.395 24.354c0-0.215-0.469-0.399-1.411-0.547-0.914-0.148-2.023-0.223-3.328-0.223-1.277 0-2.386 0.075-3.328 0.223-0.914 0.148-1.375 0.332-1.375 0.547 0 0.211 0.461 0.402 1.375 0.574 0.918 0.149 2.027 0.223 3.328 0.223 1.305 0 2.414-0.074 3.328-0.223 0.942-0.172 1.411-0.363 1.411-0.574z" inkscape:connector-curvature="0"/>
          </g>
        </g>
      </g>
      <g id="g318">
        <g id="g320">
          <g id="g326">
            <path id="path334" style="fill-rule:evenodd;fill:url(#linearGradient328)" d="m7.875 11.073c0.125 0.172 0.234 0.265 0.316 0.289 0.043 0.019 0.098 0 0.161-0.067-0.063-0.168-0.094-0.32-0.094-0.449l0.351-1.887c0.063-0.254 0.051-0.531-0.031-0.832-0.023-0.277-0.129-0.519-0.32-0.734-0.172-0.191-0.383-0.344-0.641-0.449-0.215-0.063-0.394-0.063-0.543 0-0.172 0.062-0.289 0.203-0.351 0.418l-0.067 0.191 0.227 0.352 0.16 0.16c0.062 0.043 0.113 0 0.156-0.129l0.098-0.418c0.105-0.254 0.234-0.352 0.383-0.285 0.191 0.062 0.3 0.265 0.32 0.605 0.02 0.282-0.031 0.727-0.16 1.348-0.129 0.488-0.192 0.906-0.192 1.246 0.043 0.277 0.118 0.492 0.227 0.641zm-1.059-1.024c0.086-0.191 0.215-0.289 0.383-0.289l0.067-0.062 0.031-0.098c0.023-0.02-0.02-0.098-0.125-0.223l-0.227-0.191c-0.062-0.023-0.148 0.019-0.254 0.125-0.086 0.066-0.171 0.184-0.257 0.352-0.082 0.238-0.094 0.523-0.032 0.867 0.063 0.316 0.223 0.605 0.481 0.863 0.258 0.277 0.566 0.48 0.929 0.605 0.426 0.153 0.79 0.161 1.086 0.036 0.321-0.129 0.547-0.352 0.672-0.672 0.172-0.492 0-0.93-0.511-1.313 0.492 0 0.832-0.246 1.023-0.738 0.129-0.383 0.129-0.734 0-1.055-0.129-0.363-0.352-0.586-0.672-0.672-0.172-0.043-0.297-0.043-0.383 0-0.086 0.02-0.148 0.086-0.191 0.192l-0.035 0.289c0.043 0.129 0.086 0.191 0.129 0.191 0.062 0.02 0.14-0.054 0.222-0.222 0.067-0.172 0.129-0.235 0.196-0.192 0.125 0.039 0.168 0.223 0.125 0.543l-0.192 0.957c-0.129 0.387-0.308 0.559-0.543 0.516l-0.066 0.222c0.191 0.063 0.301 0.192 0.32 0.383 0 0.278-0.031 0.481-0.094 0.61-0.109 0.297-0.257 0.488-0.449 0.574-0.191 0.109-0.426 0.129-0.703 0.066-0.344-0.129-0.609-0.363-0.801-0.703-0.191-0.344-0.234-0.664-0.129-0.961z" inkscape:connector-curvature="0"/>
          </g>
        </g>
      </g>
      <g id="g336">
        <g id="g338">
          <g id="g344">
            <path id="path352" style="fill-rule:evenodd;fill:url(#linearGradient346)" d="m11.457 11.264 0.098-1.566 0.062-0.356c0.043-0.082 0.086-0.137 0.129-0.156 0.02-0.066 0.074-0.078 0.16-0.031l0.125 0.125 0.227 0.547 0.125-0.356c-0.254-0.66-0.488-1.023-0.703-1.086-0.106-0.043-0.211-0.019-0.321 0.063-0.082 0.043-0.16 0.16-0.222 0.351-0.106 0.321-0.117 0.75-0.032 1.281l-0.351-0.32c-0.043-0.297-0.117-0.617-0.223-0.957h-0.066l-0.094 0.254 0.16 0.672c-0.191 0.043-0.301 0.129-0.32 0.258-0.043 0.105-0.063 0.285-0.063 0.543 0.04 0.215 0.137 0.34 0.286 0.383 0.128 0.066 0.214 0.011 0.257-0.161 0.063-0.125 0.094-0.32 0.094-0.574 0.277 0.125 0.426 0.469 0.449 1.024l0.223 0.062z" inkscape:connector-curvature="0"/>
          </g>
        </g>
      </g>
      <g id="g354">
        <g id="g356">
          <g id="g362">
            <path id="path370" style="fill-rule:evenodd;fill:url(#linearGradient364)" d="m12.961 11.905v-0.223c-0.149-0.043-0.246-0.203-0.285-0.48-0.043-0.321-0.012-0.664 0.094-1.024 0.023-0.172 0.074-0.344 0.16-0.515l0.289 0.035v-0.77c-0.215-0.062-0.426 0.043-0.641 0.32-0.129 0.149-0.223 0.375-0.289 0.672-0.105 0.512-0.094 0.95 0.031 1.313 0.129 0.383 0.344 0.605 0.641 0.672z" inkscape:connector-curvature="0"/>
          </g>
        </g>
      </g>
      <g id="g372">
        <g id="g374">
          <g id="g380">
            <path id="path388" style="fill-rule:evenodd;fill:url(#linearGradient382)" d="m2.18 23.776c1.129-0.235 2.121-0.383 2.972-0.449 1.836-0.125 3.309-0.094 4.418 0.097-0.769-0.363-2.144-0.5-4.129-0.418-1.75 0.086-2.933 0.278-3.55 0.578-0.172 0.106-0.203 0.172-0.098 0.192 0.109 0.043 0.234 0.043 0.387 0z" inkscape:connector-curvature="0"/>
          </g>
        </g>
      </g>
      <g id="g390">
        <g id="g406" mask="url(#mask398)">
          <g id="g428">
            <g id="g430" clip-path="url(#clipPath410)">
              <g id="g432" transform="translate(0 -.4)">
                <g id="g436">
                  <g id="g438" clip-path="url(#clipPath414)">
                    <g id="g440">
                      <g id="g442">
                        <g id="g444">
                          <g id="g446">
                            <path id="path448" style="fill-rule:evenodd;fill:url(#linearGradient422)" d="m10.441 1.574v19.969c0.004-0.063 0.239-0.043 0.704 0.066 0.468 0.106 0.832 0.278 1.089 0.512l-0.031-19.84c-0.406-0.258-0.992-0.492-1.762-0.707z" inkscape:connector-curvature="0"/>
                          </g>
                        </g>
                      </g>
                    </g>
                  </g>
                </g>
              </g>
            </g>
          </g>
        </g>
      </g>
      <g id="g450">
        <g id="g452">
          <g id="g458">
            <path id="path466" style="fill-rule:evenodd;fill:url(#linearGradient460)" d="m1.891 12.67 0.285-0.062 0.449-0.16-0.129-0.575c0-0.363-0.051-0.621-0.16-0.769l-0.191-0.254-0.254 1.82z" inkscape:connector-curvature="0"/>
          </g>
        </g>
      </g>
      <g id="g468">
        <g id="g470">
          <g id="g476">
            <path id="path484" style="fill-rule:evenodd;fill:url(#linearGradient478)" d="m6.785 18.37c0.086-0.086 0.215-0.247 0.383-0.481 0.172-0.258 0.277-0.469 0.32-0.641l0.418-1.343c0.106-0.321 0.34-0.672 0.703-1.059 0.469-0.512 0.739-0.82 0.801-0.926 0.086-0.172 0.332-0.5 0.735-0.992 0.406-0.535 0.671-0.855 0.8-0.961l0.289-0.254c-0.707 0.192-1.281 0.5-1.726 0.926-0.707 0.664-1.176 1.024-1.41 1.09l-0.641 0.254 0.031 0.707c0 0.148-0.043 0.308-0.129 0.476-0.125 0.196-0.199 0.375-0.222 0.547-0.043 0.34-0.106 0.66-0.192 0.957-0.105 0.321-0.16 0.696-0.16 1.121v0.579z" inkscape:connector-curvature="0"/>
          </g>
        </g>
      </g>
      <g id="g486">
        <g id="g488">
          <g id="g494">
            <path id="path502" style="fill-rule:evenodd;fill:url(#linearGradient496)" d="m11.684 14.721c0.039-0.258 0.019-0.504-0.067-0.738-0.297-0.832-0.426-1.289-0.383-1.375 0.043-0.149-0.066-0.192-0.32-0.129v0.672c0.02 0.75 0.043 1.324 0.066 1.73l-0.035 1.086 0.61-0.765 0.129-0.481z" inkscape:connector-curvature="0"/>
          </g>
        </g>
      </g>
      <g id="g504">
        <g id="g506">
          <g id="g512">
            <path id="path520" style="fill-rule:evenodd;fill:url(#linearGradient514)" d="m12.93 18.463 0.32-1.023-0.031-0.992c0-0.364-0.067-0.684-0.192-0.961l-0.097 0.511c-0.043 0.235-0.043 0.622 0 1.153 0.043 0.344 0.054 0.664 0.031 0.961l-0.031 0.351z" inkscape:connector-curvature="0"/>
          </g>
        </g>
      </g>
      <g id="g522">
        <g id="g524">
          <g id="g530">
            <path id="path538" style="fill-rule:evenodd;fill:url(#linearGradient532)" d="m5.859 24.385c0.192-0.023 0.309-0.086 0.352-0.191 0.062-0.11-0.055-0.227-0.352-0.356-0.3-0.125-0.875-0.168-1.73-0.125-0.809 0.063-1.289 0.16-1.438 0.285-0.148 0.129-0.043 0.247 0.321 0.356 0.34 0.082 0.808 0.137 1.406 0.156 0.746 0.024 1.227-0.019 1.441-0.125z" inkscape:connector-curvature="0"/>
          </g>
        </g>
      </g>
      <path id="path540" style="fill-rule:evenodd;fill:#472f00" d="m5.859 24.159c0.192-0.02 0.309-0.063 0.352-0.125 0.062-0.067-0.043-0.141-0.32-0.227-0.278-0.086-0.813-0.117-1.602-0.098-0.766 0.047-1.227 0.11-1.375 0.196-0.129 0.086-0.019 0.16 0.32 0.222 0.321 0.063 0.746 0.106 1.282 0.129 0.703 0 1.148-0.031 1.343-0.097z" inkscape:connector-curvature="0"/>
      <g id="g542">
        <g id="g558" mask="url(#mask550)">
          <g id="g570">
            <g id="g572" clip-path="url(#clipPath562)">
              <g id="g574" transform="translate(0 -.4)">
                <g id="g578">
                  <g id="g580" clip-path="url(#clipPath566)">
                    <g id="g582">
                      <path id="path584" style="fill-rule:evenodd;fill:#472f00" d="m6.816 24.902c0.321 0.278 0.598 0.461 0.832 0.547l1.856 0.512c0.109 0 0.641-0.172 1.601-0.512 0.129-0.066 0.149-0.203 0.063-0.418-0.766-0.254-1.504-0.437-2.207-0.543-1.215-0.172-2.004-0.179-2.367-0.031-0.129 0.043-0.297 0.203-0.512 0.481l0.734-0.036z" inkscape:connector-curvature="0"/>
                    </g>
                  </g>
                </g>
              </g>
            </g>
          </g>
        </g>
      </g>
      <g id="g586">
        <g id="g588">
          <g id="g594">
            <path id="path602" style="fill-rule:evenodd;fill:url(#linearGradient596)" d="m8.77 25.151c-0.34-0.125-0.395-0.278-0.161-0.446 0.383-0.257 0.875-0.246 1.473 0.032 0.555 0.234 0.383 0.414-0.512 0.543-0.234 0.043-0.5 0-0.8-0.129zm-0.575-0.766c0.106 0.043 0.149 0.094 0.125 0.16-0.043 0.082-0.148 0.16-0.32 0.223-0.211 0.043-0.395 0.031-0.543-0.031-0.148-0.067-0.18-0.149-0.094-0.258 0.168-0.168 0.446-0.203 0.832-0.094zm2.336 0.992c0.449-0.172 0.629-0.332 0.543-0.48-0.062-0.129-0.543-0.301-1.441-0.512-0.875-0.191-1.524-0.301-1.949-0.32-0.512-0.024-0.821-0.024-0.93 0-0.254 0.019-0.488 0.129-0.703 0.32-0.258 0.192-0.098 0.32 0.48 0.383 0.149 0 0.641 0.137 1.473 0.418 0.789 0.254 1.281 0.383 1.473 0.383 0.316 0 0.668-0.067 1.054-0.192z" inkscape:connector-curvature="0"/>
          </g>
        </g>
      </g>
      <g id="g604">
        <g id="g606">
          <g id="g612">
            <path id="path620" style="fill-rule:evenodd;fill:url(#linearGradient614)" d="m8.77 25.311c-0.34-0.125-0.395-0.277-0.161-0.445 0.383-0.258 0.875-0.246 1.473 0.031 0.555 0.234 0.383 0.414-0.512 0.543-0.234 0.043-0.5 0-0.8-0.129zm-0.575-0.766c0.106 0.043 0.149 0.094 0.125 0.16-0.043 0.086-0.148 0.161-0.32 0.223-0.211 0.043-0.391 0.031-0.543-0.031-0.148-0.067-0.18-0.152-0.094-0.258 0.168-0.168 0.446-0.203 0.832-0.094zm2.27 0.864c0.426-0.11 0.629-0.223 0.609-0.352-0.019-0.129-0.5-0.301-1.441-0.512-0.852-0.191-1.504-0.3-1.949-0.32-0.512-0.023-0.821-0.023-0.93 0-0.254 0.02-0.488 0.129-0.703 0.32-0.149 0.106 0.105 0.2 0.769 0.285 0.149 0.024 0.575 0.161 1.278 0.418 0.683 0.235 1.121 0.352 1.312 0.352 0.297 0 0.652-0.062 1.055-0.191z" inkscape:connector-curvature="0"/>
          </g>
        </g>
      </g>
    </g>
  </g>
<metadata><rdf:RDF><cc:Work><dc:format>image/svg+xml</dc:format><dc:type rdf:resource="http://purl.org/dc/dcmitype/StillImage"/><cc:license rdf:resource="http://creativecommons.org/licenses/publicdomain/"/><dc:publisher><cc:Agent rdf:about="http://openclipart.org/"><dc:title>Openclipart</dc:title></cc:Agent></dc:publisher></cc:Work><cc:License rdf:about="http://creativecommons.org/licenses/publicdomain/"><cc:permits rdf:resource="http://creativecommons.org/ns#Reproduction"/><cc:permits rdf:resource="http://creativecommons.org/ns#Distribution"/><cc:permits rdf:resource="http://creativecommons.org/ns#DerivativeWorks"/></cc:License></rdf:RDF></metadata></svg>
